<svg xmlns="http://www.w3.org/2000/svg" viewBox="0 0 16 16">
  <path d="M0 1.146C0 .513.526 0 1.175 0h13.65C15.474 0 16 .513 16 1.146v13.708c0 .633-.526 1.146-1.175 1.146H1.175C.526 16 0 15.487 0 14.854V1.146zm4.943 12.354V6.169H2.542V13.5h2.401zM3.742 5.124c.837 0 1.358-.554 1.358-1.248-.015-.709-.521-1.248-1.343-1.248-.822 0-1.359.54-1.359 1.248 0 .694.521 1.248 1.327 1.248h.017zm4.91 8.376V9.359c0-.222.015-.444.08-.603.18-.444.588-.906 1.272-.906.896 0 1.255.684 1.255 1.687V13.5h2.4V9.26c0-2.271-1.21-3.327-2.824-3.327-1.303 0-1.885.717-2.21 1.22v-.984h-2.4c.03.651 0 7.331 0 7.331h2.4z" fill="currentColor"/>
</svg>
