<svg xmlns="http://www.w3.org/2000/svg" viewBox="0 0 24 24">
  <path d="M20.94 14.54c-.32 1.6-3.2 3.35-6.34 3.72-1.64.2-3.27.24-4.96-.16-2.76-.65-5.1-4-5.1-8.12 0-4.36 2.85-5.63 2.85-5.63C8.8 3.7 10.5 3.4 12 3.4h.03c1.5 0 3.2.3 4.61.95 0 0 2.85 1.27 2.85 5.63 0 .97-.16 2.04-.55 3.56zm-2.68-4.72c0-1.07-.28-1.9-.84-2.47-.58-.58-1.34-.88-2.28-.88-.78 0-1.4.2-1.88.62-.45.4-.78.93-.99 1.59l-.27.86-.27-.86c-.21-.66-.54-1.19-.99-1.59-.48-.42-1.1-.62-1.88-.62-.94 0-1.7.3-2.28.88-.56.57-.84 1.4-.84 2.47v5.18h2.04V9.97c0-.74.32-1.12.95-1.12.69 0 1.04.45 1.04 1.34v2.77h2V10.2c0-.89.35-1.34 1.04-1.34.63 0 .95.37.95 1.12V15h2.04V9.82z" fill="currentColor"/>
</svg>
