<?xml version="1.0" encoding="UTF-8" standalone="no"?>
<!-- Generator: Adobe Illustrator 12.0.1, SVG Export Plug-In . SVG Version: 6.00 Build 51448)  -->

<svg
   version="1.1"
   id="Ebene_1"
   width="453.54242"
   height="127.52107"
   viewBox="0 0 425.19601 119.551"
   overflow="visible"
   enable-background="new 0 0 425.196 119.551"
   xml:space="preserve"
   inkscape:version="1.2.2 (732a01da63, 2022-12-09)"
   sodipodi:docname="UM_Logo_DE_ohne_original.svg"
   inkscape:export-filename="D:\Data\server\www-neu-2016\webserver_bib_produktion\fileadmin\relaunch_2016\Resources\Images\header\Uni\UNI_MA_Logo_DE_Blau_angepasst_211_95.png"
   inkscape:export-xdpi="36.34539"
   inkscape:export-ydpi="36.34539"
   style="overflow:visible"
   xmlns:inkscape="http://www.inkscape.org/namespaces/inkscape"
   xmlns:sodipodi="http://sodipodi.sourceforge.net/DTD/sodipodi-0.dtd"
   xmlns:xlink="http://www.w3.org/1999/xlink"
   xmlns="http://www.w3.org/2000/svg"
   xmlns:svg="http://www.w3.org/2000/svg"
   xmlns:rdf="http://www.w3.org/1999/02/22-rdf-syntax-ns#"
   xmlns:cc="http://creativecommons.org/ns#"
   xmlns:dc="http://purl.org/dc/elements/1.1/"><metadata
     id="metadata75"><rdf:RDF><cc:Work
         rdf:about=""><dc:format>image/svg+xml</dc:format><dc:type
           rdf:resource="http://purl.org/dc/dcmitype/StillImage" /></cc:Work></rdf:RDF></metadata><defs
     id="defs73"><linearGradient
       inkscape:collect="always"
       xlink:href="#linearGradient6630"
       id="linearGradient5166"
       gradientUnits="userSpaceOnUse"
       gradientTransform="matrix(0.6168659,0,0,1.0413171,-17.413527,-18.099466)"
       x1="0.73296881"
       y1="247.74107"
       x2="501.13821"
       y2="247.74107" /><linearGradient
       id="linearGradient6630"
       inkscape:swatch="solid"><stop
         style="stop-color:#ffffff;stop-opacity:1;"
         offset="0"
         id="stop6632" /></linearGradient><filter
       id="filter5168"
       inkscape:label="Evanescent"
       inkscape:menu="Blurs"
       inkscape:menu-tooltip="Blur the contents of objects, preserving the outline and adding progressive transparency at edges"
       style="color-interpolation-filters:sRGB"><feGaussianBlur
         id="feGaussianBlur5170"
         result="result6"
         stdDeviation="3"
         in="SourceGraphic" /><feColorMatrix
         id="feColorMatrix5172"
         values="1 0 0 0 0 0 1 0 0 0 0 0 1 0 0 0 0 0 1 0 "
         result="result7"
         in="SourceGraphic" /><feComposite
         id="feComposite5174"
         in2="result7"
         operator="in"
         in="result6"
         result="fbSourceGraphic" /><feColorMatrix
         result="fbSourceGraphicAlpha"
         in="fbSourceGraphic"
         values="0 0 0 -1 0 0 0 0 -1 0 0 0 0 -1 0 0 0 0 1 0"
         id="feColorMatrix4261" /><feGaussianBlur
         id="feGaussianBlur4263"
         result="result6"
         stdDeviation="3"
         in="fbSourceGraphic" /><feColorMatrix
         id="feColorMatrix4265"
         values="1 0 0 0 0 0 1 0 0 0 0 0 1 0 0 0 0 0 1 0 "
         result="result7"
         in="fbSourceGraphic" /><feComposite
         id="feComposite4267"
         in2="result7"
         operator="in"
         in="result6" /></filter></defs><sodipodi:namedview
     pagecolor="#ffffff"
     bordercolor="#666666"
     borderopacity="1"
     objecttolerance="10"
     gridtolerance="10"
     guidetolerance="10"
     inkscape:pageopacity="0"
     inkscape:pageshadow="2"
     inkscape:window-width="1920"
     inkscape:window-height="1017"
     id="namedview71"
     showgrid="false"
     inkscape:zoom="3.5748218"
     inkscape:cx="161.54651"
     inkscape:cy="33.008638"
     inkscape:window-x="1912"
     inkscape:window-y="-8"
     inkscape:window-maximized="1"
     inkscape:current-layer="layer3"
     fit-margin-top="0"
     fit-margin-left="0"
     fit-margin-right="0"
     fit-margin-bottom="0"
     inkscape:showpageshadow="2"
     inkscape:pagecheckerboard="0"
     inkscape:deskcolor="#d1d1d1" /><g
     inkscape:groupmode="layer"
     id="layer3"
     inkscape:label="Grauer Hintergrund für Weisses Logo bearbeiten (Ebengröße)"
     style="display:none"><path
       style="opacity:0.8;fill:#1a1a1a;fill-opacity:0.941176;stroke:none"
       d="M 0,0 V 23.458984 104.0625 127.52148 H 48.189453 405.35352 453.54297 V 104.0625 23.458984 0 H 405.35352 48.189453 Z"
       transform="matrix(0.93749995,0,0,0.93750006,0,-3.5762789e-6)"
       id="rect3101"
       inkscape:connector-curvature="0" /></g><g
     style="display:none"
     inkscape:label="Grauer Hintergrund für Weisses Logo bearbeiten (vergrößert)"
     id="g4530"
     inkscape:groupmode="layer"><path
       style="opacity:1;fill:#ffffff;fill-opacity:1;stroke:none"
       d="m -31.875,-29.875 c 0,60.433594 0,120.867188 0,181.30078 162.98242,0 325.96484,0 488.94727,0 0,-61.100259 0,-122.20052 0,-183.30078 -162.98243,0 -325.96485,0 -488.94727,0 l 0,1 0,1 z"
       id="path4532"
       inkscape:connector-curvature="0" /></g><g
     inkscape:groupmode="layer"
     id="g4570"
     inkscape:label="Weisser Hintergrund für export digi (vergrößert)"
     style="display:none"><path
       inkscape:connector-curvature="0"
       id="path4572"
       d="m -33.186892,-48.088361 c 0,72.711361 0,145.42272 0,218.134041 163.856592,0 327.713182,0 491.569782,0 0,-73.513431 0,-147.026899 0,-220.540362 -163.8566,0 -327.71319,0 -491.569782,0 l 0,1.203162 0,1.203159 z"
       style="opacity:1;fill:#ffffff;fill-opacity:1;stroke:none"
       inkscape:export-xdpi="36.34539"
       inkscape:export-ydpi="36.34539" /></g><g
     style="display:inline"
     inkscape:label="Logo in Weiss"
     id="g3031"
     inkscape:groupmode="layer"><path
       d="m 151.685,104.184 v -1.244 c -3.864,-0.355 -3.997,-0.578 -4.131,-5.285 l -0.444,-16.08 c -0.133,-4.574 0.178,-4.662 4.086,-5.018 v -1.244 h -7.55 L 133.385,97.522 123.258,75.313 h -7.284 v 1.244 c 4.042,0.4 4.264,0.576 3.864,6.35 l -0.622,9.24 c -0.355,4.619 -0.621,6.574 -0.843,8.127 -0.312,1.867 -1.2,2.355 -3.776,2.666 v 1.244 h 10.349 v -1.244 c -2.931,-0.311 -3.997,-0.621 -4.086,-2.754 -0.045,-1.777 -0.045,-3.73 0.133,-7.373 l 0.666,-12.658 h 0.089 l 9.95,23.719 h 0.888 l 10.838,-24.342 h 0.177 l 0.133,18.123 c 0.045,4.707 -0.133,4.93 -3.731,5.285 v 1.244 z m 32.557,0 v -1.244 c -2.887,-0.266 -3.465,-0.666 -4.886,-4.486 -2.843,-7.729 -5.819,-16.166 -8.572,-23.807 l -1.377,0.4 -9.195,23.316 c -1.554,3.91 -2.176,4.178 -4.974,4.576 v 1.244 h 9.638 v -1.244 c -3.331,-0.311 -3.731,-0.756 -2.754,-3.553 0.578,-1.865 1.244,-3.732 1.955,-5.73 h 9.46 c 0.978,2.709 1.866,5.107 2.443,6.84 0.578,1.732 0.178,2.088 -2.62,2.443 v 1.244 h 10.882 z M 172.916,91.746 h -8.173 c 1.332,-3.643 2.754,-7.506 4.175,-11.326 h 0.089 z m 46.191,-16.434 h -10.481 v 1.244 c 3.065,0.178 4.131,0.754 4.353,2.754 0.133,1.242 0.312,3.287 0.312,7.373 v 10.926 h -0.134 L 194.636,75.312 h -6.574 v 1.244 c 2.088,0.178 3.065,0.533 3.953,1.643 0.8,1.066 0.888,1.244 0.888,4.486 v 9.771 c 0,4.086 -0.133,6.219 -0.266,7.596 -0.222,2.176 -1.333,2.754 -3.909,2.887 v 1.244 h 10.527 v -1.244 c -3.02,-0.178 -4.042,-0.711 -4.264,-2.977 -0.133,-1.287 -0.266,-3.42 -0.266,-7.506 V 81.309 h 0.088 l 18.922,23.275 h 1.377 v -17.9 c 0,-4.131 0.09,-6.131 0.267,-7.463 0.178,-1.953 1.244,-2.531 3.73,-2.664 v -1.245 z m 37.089,0 h -10.483 v 1.244 c 3.064,0.178 4.131,0.754 4.353,2.754 0.134,1.242 0.312,3.287 0.312,7.373 v 10.926 h -0.133 L 231.723,75.312 h -6.573 v 1.244 c 2.087,0.178 3.064,0.533 3.953,1.643 0.799,1.066 0.889,1.244 0.889,4.486 v 9.771 c 0,4.086 -0.134,6.219 -0.268,7.596 -0.222,2.176 -1.332,2.754 -3.908,2.887 v 1.244 h 10.527 v -1.244 c -3.021,-0.178 -4.042,-0.711 -4.264,-2.977 -0.135,-1.287 -0.268,-3.42 -0.268,-7.506 V 81.309 h 0.089 l 18.921,23.275 h 1.378 v -17.9 c 0,-4.131 0.089,-6.131 0.267,-7.463 0.177,-1.953 1.243,-2.531 3.731,-2.664 v -1.245 z m 37.531,0 h -11.592 v 1.244 c 3.464,0.311 3.819,0.533 3.819,4.219 v 7.195 h -15.146 v -7.195 c 0,-3.686 0.356,-3.908 3.731,-4.219 v -1.244 h -11.504 v 1.244 c 3.643,0.311 3.998,0.488 3.998,4.219 V 98.72 c 0,3.73 -0.355,3.953 -3.909,4.219 v 1.244 h 11.682 v -1.244 c -3.642,-0.266 -3.998,-0.533 -3.998,-4.219 v -8.885 h 15.146 v 8.885 c 0,3.73 -0.399,3.953 -4.176,4.219 v 1.244 h 11.904 v -1.244 c -3.598,-0.266 -3.953,-0.488 -3.953,-4.219 V 80.775 c 0,-3.686 0.355,-3.908 3.997,-4.219 v -1.244 z m 28.915,21.676 c -0.577,1.775 -1.421,3.285 -2.176,4.176 -0.979,1.154 -2.221,1.51 -5.597,1.51 -2.222,0 -3.775,-0.045 -4.619,-0.578 -0.8,-0.578 -1.066,-1.51 -1.066,-3.598 v -8.395 h 4.219 c 3.865,0 4.176,0.266 4.753,3.463 h 1.288 v -8.527 h -1.288 c -0.577,2.977 -0.8,3.332 -4.797,3.332 h -4.175 V 78.289 c 0,-1.332 0.089,-1.422 1.465,-1.422 h 3.376 c 3.198,0 4.397,0.311 5.02,1.242 0.578,0.979 1.021,1.955 1.422,3.82 l 1.288,-0.221 c -0.134,-2.266 -0.356,-5.285 -0.356,-6.396 h -19.81 v 1.244 c 3.465,0.311 3.82,0.443 3.82,4.441 v 17.678 c 0,3.598 -0.355,3.953 -4.397,4.264 v 1.244 h 21.409 c 0.399,-1.377 1.288,-5.553 1.554,-7.018 z m 20.875,7.196 v -1.244 c -3.642,-0.266 -3.997,-0.488 -3.997,-4.309 V 80.863 c 0,-3.773 0.355,-4.041 3.997,-4.307 v -1.244 h -11.77 v 1.244 c 3.642,0.266 3.997,0.533 3.997,4.307 v 17.768 c 0,3.775 -0.355,4.043 -3.997,4.309 v 1.244 z m 45.038,0 v -1.244 c -3.864,-0.355 -3.998,-0.578 -4.131,-5.285 l -0.444,-16.08 c -0.133,-4.574 0.179,-4.662 4.086,-5.018 v -1.244 h -7.551 l -10.26,22.209 -10.127,-22.209 h -7.284 v 1.244 c 4.042,0.4 4.264,0.576 3.864,6.35 l -0.622,9.24 c -0.355,4.619 -0.622,6.574 -0.844,8.127 -0.311,1.867 -1.199,2.355 -3.775,2.666 v 1.244 h 10.349 v -1.244 c -2.931,-0.311 -3.997,-0.621 -4.086,-2.754 -0.045,-1.777 -0.045,-3.73 0.133,-7.373 l 0.666,-12.658 h 0.09 l 9.948,23.719 h 0.89 l 10.837,-24.342 h 0.178 l 0.133,18.123 c 0.045,4.707 -0.133,4.93 -3.73,5.285 v 1.244 z"
       id="path3035"
       inkscape:connector-curvature="0"
       style="fill:#ffffff;fill-opacity:1" /><path
       d="m 145.245,36.905 h -10.571 v 1.244 c 3.109,0.222 4.042,0.755 4.308,2.487 0.178,1.377 0.311,3.242 0.311,7.329 v 3.375 c 0,7.329 -1.999,12.659 -8.395,12.659 -5.507,0 -8.35,-4.086 -8.35,-11.237 V 42.635 c 0,-3.998 0.355,-4.264 3.864,-4.486 v -1.244 h -11.504 v 1.244 c 3.509,0.311 3.865,0.488 3.865,4.486 v 11.104 c 0,5.197 1.243,8.528 3.908,10.571 1.955,1.51 4.531,2.131 7.107,2.131 2.932,0 5.907,-0.932 7.951,-3.064 2.576,-2.709 3.375,-6.485 3.375,-11.726 v -3.686 c 0,-4.087 0.089,-5.997 0.222,-7.196 0.222,-1.821 1.244,-2.443 3.909,-2.62 z m 35.577,0 H 170.34 v 1.244 c 3.065,0.177 4.131,0.755 4.353,2.753 0.133,1.244 0.311,3.287 0.311,7.374 V 59.202 H 174.87 L 156.349,36.905 h -6.574 v 1.244 c 2.087,0.177 3.065,0.533 3.953,1.643 0.8,1.066 0.888,1.244 0.888,4.486 v 9.772 c 0,4.086 -0.133,6.217 -0.266,7.594 -0.222,2.177 -1.333,2.754 -3.909,2.888 v 1.244 h 10.527 v -1.244 c -3.02,-0.179 -4.042,-0.711 -4.264,-2.976 -0.133,-1.289 -0.267,-3.42 -0.267,-7.506 V 42.901 h 0.089 l 18.922,23.274 h 1.377 V 48.276 c 0,-4.131 0.088,-6.13 0.266,-7.462 0.178,-1.955 1.244,-2.532 3.731,-2.665 z m 18.61,28.871 v -1.244 c -3.642,-0.267 -3.997,-0.488 -3.997,-4.308 V 42.458 c 0,-3.775 0.355,-4.042 3.997,-4.308 v -1.244 h -11.77 v 1.244 c 3.642,0.266 3.997,0.533 3.997,4.308 v 17.767 c 0,3.774 -0.355,4.041 -3.997,4.308 v 1.244 h 11.77 z m 34.156,-28.871 h -9.994 v 1.244 c 3.598,0.444 3.864,0.799 3.021,3.331 -1.422,4.442 -4.798,13.103 -7.018,18.654 h -0.089 c -2.976,-7.64 -6.219,-16.211 -7.373,-19.365 -0.711,-1.954 -0.533,-2.265 2.62,-2.62 v -1.244 h -10.882 v 1.288 c 2.621,0.222 3.331,0.577 4.619,3.909 2.577,6.44 6.219,15.99 9.195,24.118 h 1.377 c 3.331,-9.15 8.039,-20.432 9.238,-23.319 1.688,-3.997 2.266,-4.397 5.286,-4.752 z m 24.605,21.675 c -0.577,1.777 -1.421,3.287 -2.177,4.176 -0.977,1.154 -2.22,1.51 -5.596,1.51 -2.221,0 -3.775,-0.045 -4.619,-0.578 -0.8,-0.576 -1.066,-1.51 -1.066,-3.598 v -8.394 h 4.22 c 3.863,0 4.175,0.266 4.753,3.464 h 1.288 v -8.528 h -1.288 c -0.578,2.976 -0.8,3.331 -4.797,3.331 h -4.176 V 39.881 c 0,-1.333 0.089,-1.421 1.466,-1.421 h 3.376 c 3.197,0 4.396,0.31 5.019,1.243 0.578,0.977 1.022,1.955 1.421,3.82 l 1.289,-0.222 c -0.134,-2.265 -0.355,-5.286 -0.355,-6.396 H 237.14 v 1.244 c 3.465,0.311 3.82,0.444 3.82,4.441 v 17.677 c 0,3.599 -0.355,3.953 -4.397,4.265 v 1.244 h 21.409 c 0.4,-1.378 1.288,-5.552 1.554,-7.018 z m 34.512,6.397 c -0.978,-0.267 -1.999,-0.756 -3.198,-2.088 -1.066,-1.154 -1.999,-2.31 -3.598,-4.62 -1.332,-1.998 -3.198,-4.974 -3.953,-6.44 3.287,-1.421 5.641,-3.775 5.641,-7.595 0,-2.665 -1.155,-4.664 -2.931,-5.819 -1.688,-1.11 -3.865,-1.51 -7.107,-1.51 h -11.015 v 1.244 c 3.464,0.311 3.818,0.444 3.818,4.219 v 17.856 c 0,3.774 -0.398,4.041 -4.04,4.308 v 1.244 h 11.681 v -1.244 c -3.553,-0.267 -3.953,-0.533 -3.953,-4.308 v -7.063 h 1.421 c 2.31,0 3.065,0.533 3.82,1.777 1.333,2.177 2.932,4.93 4.485,7.107 1.999,2.887 3.865,3.864 7.196,4.042 0.533,0.044 1.021,0.044 1.554,0.044 z M 274.05,51.696 V 40.77 c 0,-1.199 0.178,-1.732 0.489,-1.954 0.354,-0.267 1.109,-0.444 2.397,-0.444 3.376,0 6.529,1.776 6.529,6.573 0,2.399 -0.71,4.176 -2.443,5.508 -1.109,0.888 -2.575,1.244 -4.841,1.244 h -2.131 z m 39.885,-8.305 c -0.354,-2.798 -0.577,-4.531 -0.755,-6.13 -1.688,-0.533 -3.553,-1.021 -5.596,-1.021 -5.73,0 -9.15,3.642 -9.15,7.906 0,5.019 4.486,7.24 7.329,8.75 3.331,1.777 5.774,3.331 5.774,6.618 0,3.243 -1.999,5.331 -5.33,5.331 -4.575,0 -6.574,-4.486 -7.284,-7.196 l -1.289,0.31 c 0.267,2.132 0.844,5.952 1.2,6.886 0.398,0.221 1.065,0.532 2.176,0.933 1.111,0.311 2.532,0.665 4.353,0.665 5.907,0 9.86,-3.73 9.86,-8.394 0,-4.974 -4.219,-7.062 -7.684,-8.839 -3.509,-1.821 -5.642,-3.331 -5.642,-6.573 0,-2.399 1.512,-4.886 4.932,-4.886 3.863,0 5.019,3.065 5.817,5.907 z m 21.542,22.385 v -1.244 c -3.642,-0.267 -3.997,-0.488 -3.997,-4.308 V 42.458 c 0,-3.775 0.355,-4.042 3.997,-4.308 v -1.244 h -11.77 v 1.244 c 3.642,0.266 3.997,0.533 3.997,4.308 v 17.767 c 0,3.774 -0.355,4.041 -3.997,4.308 v 1.244 h 11.77 z m 31.668,-22.12 c -0.222,-2.576 -0.443,-5.818 -0.443,-7.861 h -0.934 c -0.71,0.843 -1.065,1.11 -2.265,1.11 h -17.544 c -1.244,0 -1.821,-0.089 -2.443,-1.11 h -0.889 c -0.088,2.442 -0.311,5.33 -0.533,7.995 h 1.289 c 0.533,-1.955 0.888,-3.198 1.421,-3.954 0.577,-1.021 1.466,-1.376 5.152,-1.376 h 2.754 v 21.852 c 0,3.509 -0.355,3.953 -4.397,4.22 v 1.244 h 12.747 v -1.244 c -4.219,-0.267 -4.575,-0.711 -4.575,-4.22 V 38.46 h 3.154 c 3.331,0 4.086,0.31 4.797,1.376 0.533,0.711 0.934,1.822 1.421,3.954 z m 30.647,22.12 v -1.244 c -2.887,-0.267 -3.464,-0.666 -4.887,-4.485 -2.842,-7.729 -5.817,-16.168 -8.571,-23.808 l -1.377,0.399 -9.194,23.319 c -1.555,3.909 -2.177,4.176 -4.975,4.575 v 1.244 h 9.639 v -1.244 c -3.332,-0.312 -3.73,-0.755 -2.754,-3.554 0.577,-1.865 1.243,-3.73 1.954,-5.729 h 9.461 c 0.977,2.709 1.865,5.108 2.442,6.841 0.577,1.731 0.178,2.088 -2.62,2.442 v 1.244 z M 386.466,53.339 h -8.173 c 1.333,-3.642 2.754,-7.506 4.176,-11.326 h 0.088 z m 1.332,-22.83 c -1.11,0 -2.087,0.977 -2.087,2.221 0,1.155 0.977,2.132 2.087,2.132 1.2,0 2.132,-0.977 2.132,-2.132 0,-1.244 -0.932,-2.221 -2.132,-2.221 m -8.44,0.044 c -1.153,0 -2.132,0.933 -2.132,2.177 0,1.155 0.979,2.132 2.132,2.132 1.2,0 2.088,-0.977 2.088,-2.132 0,-1.244 -0.887,-2.177 -2.088,-2.177 m 45.838,13.103 c -0.222,-2.576 -0.443,-5.818 -0.443,-7.861 h -0.934 c -0.711,0.843 -1.065,1.11 -2.265,1.11 H 404.01 c -1.244,0 -1.821,-0.089 -2.443,-1.11 h -0.888 c -0.089,2.442 -0.311,5.33 -0.533,7.995 h 1.288 c 0.533,-1.955 0.888,-3.198 1.421,-3.954 0.578,-1.021 1.467,-1.376 5.153,-1.376 h 2.753 v 21.852 c 0,3.509 -0.355,3.953 -4.396,4.22 v 1.244 h 12.748 v -1.244 c -4.221,-0.267 -4.575,-0.711 -4.575,-4.22 V 38.46 h 3.152 c 3.332,0 4.087,0.31 4.798,1.376 0.532,0.711 0.933,1.822 1.422,3.954 z"
       id="path3037"
       inkscape:connector-curvature="0"
       style="fill:#ffffff;fill-opacity:1" /><path
       d="M 87.266,25.854 V 19.48 h 2.776 v -4.391 h -4.391 v 2.776 H 74.704 v -2.761 h -4.391 v 4.391 h 2.791 v 9.148 H 68.405 V 25.886 H 65.631 V 7.23 h 2.743 V 2.839 h -4.391 v 2.743 h -5.408 v -2.6 L 58.566,2.873 C 58.284,1.181 56.907,0 55.198,0 53.449,0.009 52.065,1.213 51.833,2.928 L 51.831,5.582 H 46.374 V 2.839 H 41.983 V 7.23 h 2.743 v 18.656 h -2.774 v 2.757 h -4.699 v -9.148 h 2.792 v -4.391 h -4.391 v 2.761 H 24.706 v -2.776 h -4.391 v 4.391 h 2.776 v 6.374 H 20.3 v 4.391 h 23.25 v -2.757 h 2.779 V 7.23 h 0.046 V 7.185 h 5.456 l -0.003,2.697 h 6.748 V 7.185 h 5.408 V 7.23 h 0.045 l 0.001,20.258 h 2.779 v 2.757 H 90.058 V 25.854 Z M 24.693,28.643 V 19.48 h 0.012 V 19.467 H 35.65 l 0.001,9.176 z M 57.24,8.547 H 53.163 V 3.066 c 0.158,-1.032 0.974,-1.725 2.053,-1.731 1.024,0 1.831,0.683 2.024,1.706 z m 17.467,20.096 v -9.176 h 10.944 v 0.013 h 0.012 v 9.163 z"
       id="path3039"
       inkscape:connector-curvature="0"
       style="fill:#ffffff;fill-opacity:1" /><path
       inkscape:connector-curvature="0"
       id="polygon3041"
       d="m 81.157,100.299 -1.717,-3.072 -14.209,5.804 1.581,4.242 -11.642,7.719 -11.769,-7.717 1.655,-4.304 -14.237,-5.914 -1.725,3.177 -11.34,-0.314 -2.929,-11.594 5.019,-1.883 -5.215,-16.802 -5.184,1.171 -5.126,-8.089 3.445,-7.533 6.021,1.642 -0.7,-19.847 h -1.268 l 0.641,18.171 -5.398,-1.472 -4.179,9.136 5.972,9.426 4.913,-1.111 4.513,14.543 -4.961,1.861 3.442,13.623 13.076,0.359 1.552,-2.857 12.042,5.004 -1.579,4.105 13.323,8.739 13.176,-8.739 -1.502,-4.035 12.033,-4.914 1.548,2.772 13.232,-0.506 3.296,-13.611 -4.968,-1.709 4.515,-14.547 4.991,1.031 v 0 l 5.973,-9.356 -4.254,-9.145 -5.398,1.39 0.64,-18.158 h -1.268 l -0.698,19.809 6.019,-1.551 3.516,7.56 -5.129,8.033 -5.261,-1.086 -5.22,16.818 5.039,1.733 -2.799,11.558 z"
       style="fill:#ffffff;fill-opacity:1" /><path
       inkscape:connector-curvature="0"
       id="polygon3043"
       d="m 40.296,108.273 1.504,-3.908 -9.842,-4.088 -1.377,2.537 -14.818,-0.41 L 11.807,86.746 16.709,84.908 12.9,72.633 8.258,73.682 1.438,62.918 6.353,52.172 11.127,53.475 10.545,36.984 H 9.277 L 9.799,51.799 5.647,50.667 0,63.016 l 7.666,12.097 4.371,-0.986 3.108,10.014 -4.845,1.818 4.469,17.686 16.554,0.457 1.204,-2.215 7.646,3.177 -1.426,3.709 16.434,10.778 16.253,-10.776 -1.348,-3.617 7.675,-3.135 1.211,2.168 16.705,-0.638 4.291,-17.725 -4.824,-1.658 3.102,-9.996 4.447,0.918 7.663,-12.002 -5.73,-12.322 -4.154,1.069 0.524,-14.853 h -1.268 v 0 l -0.581,16.503 4.773,-1.23 4.994,10.737 -6.819,10.68 -4.719,-0.973 -3.807,12.268 4.896,1.681 -3.794,15.67 -14.971,0.575 -1.38,-2.469 -9.851,4.023 1.425,3.826 -14.717,9.758 z"
       style="fill:#ffffff;fill-opacity:1" /><path
       inkscape:connector-curvature="0"
       id="polygon3045"
       d="m 20.697,50.149 v 0 l 0.555,12.009 h 7.225 V 50.149 Z"
       style="fill:#ffffff;fill-opacity:1" /><path
       d="m 31.053,51.583 h 9.139 v 9.14 H 31.053 Z M 29.617,62.158 H 41.626 V 50.149 H 29.617 Z"
       id="path3047"
       inkscape:connector-curvature="0"
       style="fill:#ffffff;fill-opacity:1" /><path
       inkscape:connector-curvature="0"
       id="polygon3049"
       d="m 83.644,51.584 h 6.055 l 0.057,-1.435 h -7.547 v 0 12.009 h 7.072 l 0.057,-1.435 h -5.694 z"
       style="fill:#ffffff;fill-opacity:1" /><path
       inkscape:connector-curvature="0"
       id="polygon3051"
       d="m 28.478,76.443 h -3.383 v 0 l 3.383,11.891 z"
       style="fill:#ffffff;fill-opacity:1" /><path
       inkscape:connector-curvature="0"
       id="polygon3053"
       d="m 42.764,88.453 v 0 H 54.773 V 76.443 H 42.764 Z"
       style="fill:#ffffff;fill-opacity:1" /><path
       inkscape:connector-curvature="0"
       id="polygon3055"
       d="m 69.061,88.453 v 0 H 81.07 V 76.443 H 69.061 Z"
       style="fill:#ffffff;fill-opacity:1" /><path
       d="m 31.053,77.879 h 9.139 v 9.139 H 31.053 Z M 29.617,88.453 H 41.626 V 76.443 H 29.617 Z"
       id="path3057"
       inkscape:connector-curvature="0"
       style="fill:#ffffff;fill-opacity:1" /><path
       inkscape:connector-curvature="0"
       id="polygon3059"
       d="m 85.546,76.443 h -3.337 v 0 12.01 h 0.012 l 1.423,-5.142 v -5.432 h 1.504 z"
       style="fill:#ffffff;fill-opacity:1" /><path
       d="m 57.348,77.879 h 9.139 v 9.139 H 57.348 Z M 55.913,88.453 H 67.922 V 76.443 H 55.913 Z"
       id="path3061"
       inkscape:connector-curvature="0"
       style="fill:#ffffff;fill-opacity:1" /><path
       inkscape:connector-curvature="0"
       id="polygon3063"
       d="m 29.617,75.305 v 0 H 41.626 V 63.297 H 29.617 Z"
       style="fill:#ffffff;fill-opacity:1" /><path
       inkscape:connector-curvature="0"
       id="polygon3065"
       d="m 82.209,63.297 v 0 12.008 h 3.652 l 3.325,-12.008 z"
       style="fill:#ffffff;fill-opacity:1" /><path
       inkscape:connector-curvature="0"
       id="polygon3067"
       d="m 24.771,75.305 h 3.706 V 63.297 h -7.122 v 0 l 0.409,1.433 h 5.279 v 9.139 h -2.68 z"
       style="fill:#ffffff;fill-opacity:1" /><path
       inkscape:connector-curvature="0"
       id="polygon3069"
       d="m 29.617,49.009 v 0 H 41.626 V 37 H 29.617 Z"
       style="fill:#ffffff;fill-opacity:1" /><path
       inkscape:connector-curvature="0"
       id="polygon3071"
       d="m 82.209,37 v 0 12.01 h 7.592 L 90.274,37 Z"
       style="fill:#ffffff;fill-opacity:1" /><path
       inkscape:connector-curvature="0"
       id="polygon3073"
       d="m 42.764,62.158 v 0 H 54.773 V 50.149 H 42.764 Z"
       style="fill:#ffffff;fill-opacity:1" /><path
       inkscape:connector-curvature="0"
       id="polygon3075"
       d="m 69.061,62.158 v 0 H 81.07 V 50.149 H 69.061 Z"
       style="fill:#ffffff;fill-opacity:1" /><path
       d="m 57.348,51.583 h 9.139 v 9.14 H 57.348 Z M 55.913,62.158 H 67.922 V 50.149 H 55.913 Z"
       id="path3077"
       inkscape:connector-curvature="0"
       style="fill:#ffffff;fill-opacity:1" /><path
       inkscape:connector-curvature="0"
       id="polygon3079"
       d="m 55.913,75.305 v 0 H 67.922 V 63.297 H 55.913 Z"
       style="fill:#ffffff;fill-opacity:1" /><path
       d="m 44.2,64.73 h 9.139 v 9.139 H 44.2 Z M 42.764,75.305 H 54.773 V 63.297 H 42.764 Z"
       id="path3081"
       inkscape:connector-curvature="0"
       style="fill:#ffffff;fill-opacity:1" /><path
       d="m 70.496,64.73 h 9.137 v 9.139 H 70.496 Z M 69.061,75.305 H 81.07 V 63.297 H 69.061 Z"
       id="path3083"
       inkscape:connector-curvature="0"
       style="fill:#ffffff;fill-opacity:1" /><path
       inkscape:connector-curvature="0"
       id="polygon3085"
       d="m 55.913,49.009 v 0 H 67.922 V 37 H 55.913 Z"
       style="fill:#ffffff;fill-opacity:1" /><path
       d="m 44.2,38.437 h 9.139 v 9.139 H 44.2 Z M 42.764,49.009 H 54.773 V 37 H 42.764 Z"
       id="path3087"
       inkscape:connector-curvature="0"
       style="fill:#ffffff;fill-opacity:1" /><path
       d="m 70.496,38.437 h 9.137 v 9.139 H 70.496 Z M 69.061,49.009 H 81.07 V 37 H 69.061 Z"
       id="path3089"
       inkscape:connector-curvature="0"
       style="fill:#ffffff;fill-opacity:1" /><path
       inkscape:connector-curvature="0"
       id="polygon3091"
       d="m 20.645,49.01 h 7.834 V 37.001 h -8.39 v 0 l 0.066,1.435 h 6.888 v 9.138 h -6.464 z"
       style="fill:#ffffff;fill-opacity:1" /><path
       inkscape:connector-curvature="0"
       id="polygon3093"
       d="m 29.617,89.594 v 0 0.049 l 12.009,5.316 v -5.365 z"
       style="fill:#ffffff;fill-opacity:1" /><path
       inkscape:connector-curvature="0"
       id="polygon3095"
       d="m 55.912,89.594 v 0 11.203 l 12.009,-5.359 v -5.844 z"
       style="fill:#ffffff;fill-opacity:1" /><path
       inkscape:connector-curvature="0"
       id="polygon3097"
       d="m 53.338,100.145 1.436,0.634 V 89.594 H 42.765 v 0 5.869 l 1.435,0.635 v -5.071 h 9.138 z"
       style="fill:#ffffff;fill-opacity:1" /><path
       inkscape:connector-curvature="0"
       id="polygon3099"
       d="m 69.06,89.594 v 5.336 l 1.436,-0.641 v -3.262 h 7.309 l 3.216,-1.433 z"
       style="fill:#ffffff;fill-opacity:1" /></g></svg>
